<?xml version="1.0" encoding="utf-8"?>
<!-- Generator: Adobe Illustrator 25.2.3, SVG Export Plug-In . SVG Version: 6.00 Build 0)  -->
<svg version="1.1" id="Ebene_1" xmlns="http://www.w3.org/2000/svg" xmlns:xlink="http://www.w3.org/1999/xlink" x="0px" y="0px"
	 viewBox="0 0 9.6 9.6" style="enable-background:new 0 0 9.6 9.6;" xml:space="preserve">
<style type="text/css">
	.st0{fill:#93857A;}
	.st1{fill:#F2F4F5;}
</style>
<g>
	<g id="Rechteck_13">
		<path class="st0" d="M2.3,0h5c1.3,0,2.3,1,2.3,2.3v5c0,1.3-1,2.3-2.3,2.3h-5C1,9.6,0,8.6,0,7.3v-5C0,1,1,0,2.3,0z"/>
	</g>
	<g id="Pfad_3">
		<path class="st1" d="M4.7,7c-0.5,0-1-0.2-1.4-0.5C2.8,6.2,2.5,5.6,2.4,5c-0.2-1.3,0.7-2.5,2-2.7c0.2,0,0.5,0,0.7,0
			c1,0.2,1.8,0.9,2,2v0c0.2,1.3-0.7,2.5-2,2.7C4.9,7,4.8,7,4.7,7z M4.7,3.3c-0.1,0-0.1,0-0.2,0C3.7,3.4,3.2,4.1,3.3,4.9
			c0.1,0.4,0.3,0.7,0.6,0.9s0.7,0.3,1.1,0.3C5.7,6,6.2,5.2,6.1,4.5l0,0C6,3.8,5.5,3.4,4.9,3.3C4.9,3.3,4.8,3.3,4.7,3.3z"/>
	</g>
	<g id="Pfad_4">
		<path class="st1" d="M7.3,2.6C7,2.6,6.8,2.4,6.8,2.1S7,1.7,7.3,1.7h0c0.3,0,0.5,0.2,0.5,0.5S7.5,2.6,7.3,2.6z"/>
	</g>
</g>
</svg>
